<svg viewBox="0 0 640 480" xmlns="http://www.w3.org/2000/svg" xml:space="preserve" style="fill-rule:evenodd;clip-rule:evenodd;stroke-linecap:round;stroke-linejoin:round;stroke-miterlimit:1.5"><path d="M142.487 395c-.69-1.89-4.484-12.858-4.484-12.858l2.438-2.972-3.988-.539c-2.695-13.904-13.258-50.967-15.629-56.371-3.449 12.919-8.946 31.781-10.886 37.062-1.94 5.282-10.563 18.539-13.365 20.803-2.048 3.557-2.91 8.299-2.91 8.299l-10.348 3.557V395H57.771c0-6.899 2.587-18.217 4.203-23.714 1.617-5.497 9.701-14.55 12.18-17.784 1.617-10.886 9.269-51.413 11.533-57.341l-1.186-.539c.431-2.802 2.802-6.682 4.311-7.437 0-.107-2.479-.754-2.479-.754-.107-1.832 1.186-2.802 2.264-4.204.108-10.131 2.156-20.802 3.557-26.946 1.401-6.143 5.066-20.586 7.006-26.407-2.372 1.294-4.851.863-6.683.755 0-.216.108-1.725.108-1.725-3.126 2.803-9.377 3.018-11.641 2.911-2.263-.108-5.497-.97-8.084-2.372-2.586-1.401-4.419-2.371-5.82-5.928-1.401-3.557-.647-7.545-.539-9.7-.539-.647-1.94-3.126-1.94-5.174-3.018-.108-7.221 1.401-9.593 1.401-2.371 0-4.527-.646-4.527-2.802s6.683-7.76 12.18-7.653c2.263-.107 5.174.216 7.329 1.294-4.095-4.743-8.191-7.976-11.209-9.162-3.018-1.185-4.096-2.587-3.988-4.958.108-2.371 3.018-3.988 6.036-4.096 5.389-.215 16.706 10.024 19.077 13.042-.215-6.036-7.221-18.107-7.221-21.449 0-3.341 1.186-3.557 4.203-3.557 3.018 0 7.222 2.911 9.917 7.761 2.694 4.85 6.251 12.934 5.82 23.712 3.557-2.263 8.407-4.742 12.179-4.85 3.773-.108 5.282.108 6.575 3.233 2.91-.323 4.85 2.048 6.036 5.39 1.401-3.557 3.449-9.378 9.054-8.946 0-2.264-.216-6.036-1.94-9.593-5.821 0-9.377.108-11.641-4.743-2.263-4.85-2.371-13.257.862-15.197-2.155-5.174-1.724-15.952-1.724-20.479.215-.323 7.652-6.79 9.593-6.898-.108-1.078-.324-5.389-.108-7.222 1.509-1.293 16.491-8.73 22.419-8.515.646.971 7.976 15.629 7.976 15.629.108-3.88.646-7.868 3.557-7.76.323.539.646 6.251.646 6.251s5.282-10.886 7.761-13.365c4.527-.539 21.817 7.048 26.944 11.154-3.923 8.741-10.508 24.779-10.301 35.747.207 10.968 1.035 12.762 2.07 16.073-2.001.414-4.484-.828-5.243-2-.966 7.657-6.484 17.59-10.14 20.97-3.656 3.38-10.347 6.829-12.9 7.519.138.069 9.175 13.589 9.175 13.589-.207 2.139-1.104 3.587-1.794 4.484 1.587.621 2.001 2.897 2.346 4.001 8.553 0 16.555 14.003 17.866 16.624 2.621-.069 9.933-.206 11.934 1.449 2 1.656 3.035 6.001 2.966 9.589 1.724.068 2.276 4.621.138 6.691 0 4.001-2.415 7.795-5.657 8.691-3.242.897-4.415 1.311-6.484.552-2.069-.759-1.724-3.311-.828-5.518-.276.138-1.862-.276-1.862-.276-.483 2.828-3.656 4.001-5.174 1.034-1.517-2.966-3.656-5.38-5.932-7.036-2.277-1.655-1.173-4.07.138-5.104 1.31-1.035 2-3.556 2.483-4.659-9.105-2.001-13.451-2.484-16.211-5.657-2.759-3.173-6.76-5.794-7.794-11.451-2.553.207-4.898-.482-5.312-2.897 0 2.828-.621 4.139-1.035 6.484-.414 2.346-1.31 4.208-1.31 6.002 0 1.793 1.862 3.863 2.552 5.449.69 1.587-.207 4.001-.828 5.588-.621 1.586-.552 4.07.759 6.208 1.311 2.139 0 5.864.897 8.899.896 3.035 1.31 6.484 2.414 8.209 1.38 1.103 4.001 4.207 3.863 7.725 3.863 6.485 6.985 12.261 9.787 21.746 2.802 9.485 5.82 22.527 8.084 32.874 2.263 10.347 4.527 22.958 3.557 28.563 3.341 4.311 5.604 13.869 6.035 18.575h-36.546Z" style="fill:none;stroke:#f500f1;stroke-width:.91px" transform="translate(-16.51 -89.374) scale(1.09743)"/><path d="M436.945 260.366h-8.226c-.063 1.883-1.569 3.076-2.7 3.39-1.13.314-4.772.879-6.467.063-.691 1.067-2.574 1.695-3.516 1.695-.942 0-2.386-.188-3.579-1.067-.502.753-2.386 1.256-3.767 1.381-1.382.126-3.454-.565-4.898-1.632-1.444-1.068-4.843-2.538-5.928-2.498-1.085.04-3.263.856-4.167.856h-18.133c.1-1.808.552-4.219 1.205-5.826-1.054-.051-4.319 0-4.319 0 .1-6.48 8.123-17.871 9.818-19.818 1.695-1.946 8.665-11.239 10.737-12.557 2.072-1.319 4.709-2.512 6.341-2.637 1.633-.126 2.826.565 4.019 1.067.063-2.26 2.888-7.597 6.09-7.095 1.13-1.947 2.889-3.516 3.265-6.907-1.569-2.26-3.014-5.4-3.014-7.095-2.699.063-7.032-2.198-8.476-5.274-1.444-3.077-1.13-4.898-.502-7.221.628-2.323 2.448-3.39 3.893-4.332-2.072-4.521-1.884-8.414-1.821-11.93.062-3.516 1.758-5.337 4.395-6.467 2.637-1.13 6.655-3.014 7.974-3.077-.126-.628-.188-5.714-.188-5.714 1.695-1.193 16.827-6.278 18.711-6.216 1.444 1.696 5.525 10.612 5.713 11.553.754-2.009 2.854-4.583 4.207-4.646.097.879.16 4.144.223 4.332 1.197-2.323 4.086-7.848 6.346-8.727 2.26-.879 7.284-.377 10.235 1.318 2.951 1.696 9.167 6.405 10.925 9.105-6.091 10.109-8.853 16.45-9.858 20.532-1.005 4.081-2.826 19.527-2.951 23.106-.942.125-3.014-1.491-3.139-1.554-3.077 6.718-8.791 14.127-13.5 16.388-4.709 2.26-6.718 2.888-8.602 2.888-1.884 0-9.042-3.077-10.046-3.956-.126.628-.063 3.705-.063 3.705 3.956 1.821 7.974 4.521 8.602 13.185.628 8.665 2.096 13.8 5.161 21.682ZM482.543 258.383c.033.652-.804 2.763-3.315 2.964-2.512.201-3.064-.251-3.667-.904-2.21.502-5.274.323-5.827-.768-1.004.065-20.136 0-20.136 0 0-1.985 2.315-5.746 4.758-6.486 2.443-.739 5.369-.514 7.137.354-.032-1.254 1.254-1.961 2.572-1.961s5.24 1.865 5.947 2.315c.482-1.318 4.758-1.126 6.494-.579 1.736.547 5.934 3.026 6.037 5.065Z" style="fill:none;stroke:#f500f1;stroke-width:.91px" transform="translate(-29.557 -137.221) scale(1.09743)"/><path d="M597.717 290.61h-17.66c-1.726 0-2.982 1.412-4.159 4.552-1.178 3.139-1.413 11.066-1.256 16.56.157 5.494-1.491 13.971-2.119 15.697-.785-.078-15.697-5.18-15.697-5.18l-1.021-3.924c-3.218-2.826-7.377-7.456-7.456-12.244-.078-4.787 2.433-9.889 4.317-13.421-3.767.079-14.441.864-17.816.864-.079-1.021-.025-5.944-.025-5.944-13.5.062-31.332-2.7-33.843-3.516-2.512-.817-16.473-6.623-17.729-8.129-1.356-.151-5.098-.352-5.098-.352l-.452-2.713-2.511-.351c-2.16 1.909-4.069 3.114-8.288 3.014-4.22-.101-4.722-1.457-5.074-2.763-.653.703-1.758 2.009-1.255 2.461.502.452.602-.1 1.708-.1 1.105 0 .502 2.16-.051 2.612-.552.452-7.685 1.105-9.242 1.004.05-2.159 1.105-8.137 1.406-9.895-.452 2.009-1.808 7.987-1.808 7.987-2.26-.352-4.069-.955-4.169-3.567-.101-2.612 1.808-6.329 1.959-8.338-3.114.201-9.494-1.055-10.95-2.311-1.457-1.255-.754-2.662-.402-3.465.351-.804 3.616-.453 4.922-.503 1.306-.05 22.733 1.812 26.563 2.063 3.83.251 7.723 1.068 8.979 1.319 1.067-.691 5.463-.314 6.844.628 5.211-.44 14.983 2.671 17.243 3.188 2.261.517 10.926 3.719 12.433 4.661 2.637.189 17.343 1.191 19.415 1.191 2.072 0 24.261.335 26.396.46-.565-.753-1.382-3.579-1.821-4.709-3.077 1.13-10.674.816-13.186-.377-2.511-1.193-6.781-4.458-8.602-6.718-1.82-2.26-2.888-5.274-3.39-6.781-.502-1.507-1.13-4.584-1.381-5.902-1.005-.126-2.324-1.005-2.261-2.763.063-1.758 2.009-4.521 2.951-4.709.314-2.852 1.193-6.431 1.193-9.194 0-2.763.314-4.458 1.319-5.839-2.763-.189-5.274-2.951-6.279-5.463 1.758.314 5.463.503 5.4-.879-.063-1.381-2.323-3.641-3.077-4.144 1.633-1.193 2.009-1.193 3.83-1.444-.063-2.637 1.193-5.274 2.888-6.781 1.696-1.507 6.405-2.888 10.109-2.951-3.013-.942-3.641-2.198-2.951-3.956.691-1.758 3.391.44 4.709 1.193 1.319.754 4.396.816 6.405-.063 2.009-.879 5.563-2.001 8.199-2.097 2.636-.097 6.317 1.239 8.086 2.364 1.768 1.125 5.826 4.139 7.193 5.545.04-1.004.2-4.179.361-5.063 1.889.884 3.536 3.054 3.737 3.858.201.804-.442 2.773-1.687 3.938 2.089-.764 7.032.121 7.032 2.29 0 2.17-2.813 2.733-4.019 3.014 1.728.483 2.813 2.492 2.974 4.139.161 1.648 1.861 3.675 5.116 4.679-2.371.563-6.108 1.261-7.233 1.301 2.933.884 6.349 4.822 6.55 6.952.201 2.13-.884 5.264-1.607 6.51-.724 1.246-2.974 4.018-3.818 4.38.161 2.09-.804 7.344-1.326 9.097-.522 1.753-.161 4.807.482 6.173-1.647-.12-4.862-.321-5.264-.361-.161 2.893-.241 5.867-1.286 7.152-1.045 1.286-2.561 3.203-3.566 3.755 2.512 1.005 3.416 2.16 3.868 2.914 3.667.402 8.74 2.562 10.448 4.922 1.708 2.361 5.119 9.209 5.8 14.473Z" style="fill:none;stroke:#f500f1;stroke-width:.91px" transform="translate(-29.557 -137.221) scale(1.09743)"/><path d="M123.744 772.054H60.833c0-4.538 1.563-9.65 1.595-11.033.032-1.382.065-8.294.032-9.162-.032-.868.515-1.832 1.061-2.314-1.061-.611-1.896-3.183-1.896-5.53 0-2.347.832-26.322 1.303-30.795.471-4.474.785-40.577.706-45.129-1.334-.079-1.883.314-1.805-1.884.079-2.198.628-3.296 2.198-5.102 0-3.296.078-14.99.078-16.874-2.668.785-7.142.236-9.104-.549-1.962-.785-4.488-3.061-4.56-5.573-.071-2.511.322-4.159.871-5.572.55-1.413.707-2.355 2.355-3.924-3.297-1.963-6.672-4.631-7.221-7.3-.549-2.668-.706-4.238-.706-6.906 0-2.669 1.334-5.965 1.726-8.32-2.59-.235-3.767-.706-3.767-2.119 0-1.413 2.433-3.061 3.375-4.003.942-.941 6.436-9.182 8.084-11.851 1.648-2.668 5.101-7.456 6.907-9.732 1.805-2.276 4.316-4.866 6.514-5.415 2.198-.55 5.808-.157 6.828.941-.078-2.59-.392-6.043 3.375-6.357.078-2.511-.314-12.479-.314-12.479-2.59-2.433-6.043-7.927-6.514-10.674-3.454 0-5.337-.157-7.613-2.198-2.276-2.04-4.395-5.415-4.788-8.476-.392-3.061 1.177-4.866 1.648-5.965-2.433-3.61-3.061-8.947-3.218-13.578-.157-4.631.236-5.18 2.983-7.378 2.747-2.197 4.474-3.453 5.808-3.767-.55-2.904-.707-5.886-.393-7.613.314-1.727 3.768-4.552 6.201-5.729 2.433-1.178 5.023-2.189 7.848-3.297 2.826-1.107 5.573-1.107 7.378-.794 1.805.314 3.218 4.317 4.238 6.201 1.02 1.883 2.982 4.63 3.218 5.572 1.099-2.511 2.276-6.514 3.61-6.279 1.334.236.864 5.416.707 6.515.706-2.669 3.374-10.702 4.63-11.773 1.256-1.071 6.122-1.306 8.712-.443s5.416 2.04 8.398 2.904c2.982.863 6.043 1.57 6.122 3.767.078 2.198-2.59 8.712-3.61 12.244-1.021 3.532-2.12 14.677-2.12 17.424 0 2.746-.314 10.124.55 11.929a241.517 241.517 0 0 0 2.099 4.238l-4.454-.078c-.628 4.474-4.552 12.95-6.514 15.383-1.962 2.433-5.808 7.378-8.869 9.34-3.061 1.962-10.909 3.296-13.656 1.883.078 1.884.235 4.317.235 4.317 2.041-.785 3.767 1.727 3.61 4.238 3.611-.157 5.494.393 7.3 2.198 1.805 1.805 5.494 6.75 5.808 10.203.313 3.453 1.962 6.593 2.668 8.869.706 2.276 3.453 6.593 4.395 7.613-.942 1.02-3.767 4.317-3.767 4.317 1.02 1.569 1.648 3.531 1.648 5.18 4.788 1.02 8.555 8.005 8.633 9.81 1.963-.235 4.16 2.512 4.474 3.297 1.727-.079 5.965 2.668 6.514 6.906.864 2.904.55 6.593-.549 8.791-1.099 2.197-4.474 5.023-5.886 5.258-1.413.236-2.355-.549-2.512-1.648-.157-1.099.314-3.296.314-3.296-.471 0-2.512-.236-2.982-.393-1.178 1.177-3.461 3.079-4.945 2.904-1.484-.175-2.255-1.397-1.837-3.325.418-1.929 1.35-5.305 1.511-6.109-2.476 1.254-4.951 2.829-6.816 3.215.322 4.34 2 8.013 2.442 9.42.442 1.406.281 2.451 2.25 2.451 1.969 0 1.849 1.688 2.05 3.416.201 1.727.321 3.616 1.969 5.264 1.647 1.647-.081 3.201-.684 3.282.523 1.929 2.13 4.42 2.17 5.505.041 1.085-.843 2.451-1.446 3.054-.603.603-.362 1.527.321 2.25.683.724 1.617 4.847 1.858 8.022.241 3.175 1.005 8.077 1.286 11.814.281 3.737 1.399 13.002 1.497 25.07.098 12.067-.098 23.349-.294 28.843-.197 5.494.784 6.475 1.471 11.773.687 5.297.337 7.347.169 15.115ZM271.815 772.054l-90.624.018c.04-8.278 1.005-15.431.844-16.154-.161-.724-1.607-1.045-1.768-2.05-.161-1.004 1.407-3.094.723-4.259-.683-1.166-1.406-6.711-1.808-8.881-.402-2.17-.306-10.53-.384-16.966-.079-6.436.157-29.746.392-34.376.236-4.631 1.413-22.683 1.335-24.802-.079-2.119-1.178-2.747-1.099-4.944.078-2.198 1.805-3.925 2.197-5.18.393-1.256-.942-2.904-.942-4.317 0-1.413 2.198-2.747 2.12-3.767-.079-1.021-1.021-1.884-1.021-3.454 0-1.569 1.34-5.607 1.276-6.925-2.797 1.029-4.836 1.325-6.243.12-1.406-1.206-5.224-5.425-6.59-6.952-.321 3.938.884 10.608-.241 11.653s-3.255.482-4.38-.763c-1.125-1.246-2.652-5.023-2.974-6.912-.321-1.889-1.888-6.229-2.049-7.595-.442 3.536-.751 6.523-1.745 7.689-.995 1.165-4.15.788-4.801-2.264-.652-3.051-1.235-7.955-1.44-10.835-.206-2.881.685-6.756.994-8.23.309-1.475 1.235-4.355 1.749-6.207-2.812-.651-6.481-3.566-7.578-5.761-1.098-2.194-1.2-5.818-.137-7.784 1.063-1.965 3.6-.319 5.212.71 1.611 1.028 5.863 2.057 7.955 2.126 2.092.068 6.344.754 8.196 1.611.617-1.509 1.44-2.4 1.44-3.978-1.543-.068-3.962-.301-4.511-.328 2.14-2.963 9.156-13.236 10.294-16.786 1.139-3.549 4.622-7.97 6.363-9.711 1.741-1.741 4.688-4.219 5.894-4.755 1.205-.536 3.951-1.741 5.291-1.675.87-1.741 3.415-4.085 3.482-5.759-6.697.067-8.905-.649-10.077-1.821-1.172-1.172-5.525-7.116-6.697-10.716-1.172-3.6-2.261-9.711-3.014-12.892-.753-3.182-.335-11.553 0-14.567.335-3.014 1.423-8.958 2.009-11.47-3.6.084-7.032-1.088-8.288-1.674 1.591-2.093 5.616-8.063 7.29-9.938 1.675-1.876 7.769-5.492 10.515-7.903 2.746-2.411 7.702-3.751 9.979-4.688 2.278-.938 8.841-.737 11.721.334 2.88 1.072 7.836 3.349 9.577 4.287.134-1.608.193-2.978.193-2.978 2.545.871 4.689 3.215 6.162 4.286 1.473 1.072 2.545 5.559 2.545 8.104 2.545-.201 6.229.737 7.434 2.947 1.206 2.21 1.34 4.621 1.273 6.162-.067 1.54-2.478 6.228-3.684 7.367 1.541-.201 2.478 1.942 2.411 4.353-.067 2.411-.937 6.497-1.607 7.836-.67 1.34-2.277 4.554-3.617 5.224-1.339.67-3.148 0-4.018-.268.067 2.21.87 7.3 1.272 9.711.402 2.411 1.474 6.363 1.474 7.903 3.415.067 6.563 2.143 7.769 3.952 1.205 1.808 2.813 3.549 3.013 5.425 3.55 1.272 10.746 6.388 12.997 8.531 3.643-.161 7.801.536 11.787 3.911 3.986 3.376 5.759 8.328 7.232 13.753 1.473 5.425 2.555 10.163 3.091 11.985.536 1.821 2.358 2.357 2.572 3.911.214 1.554-1.5 2.572-2.679 3.215.964 1.607 3.518 13.66 3.175 19.832-.343 6.173-.558 10.588-1.501 16.031-.943 5.444-3.857 16.031-6.643 21.818 2.314 1.971 5.4 5.829 6.301 8.272 1.8-1.114 5.027-2 5.027-2 2.754 6.846 8.632 33.785 9.004 40.705-10.046 2.902-19.199 7.144-22.25 9.302.298 8.111.298 36.464.596 39.812.297 3.349-1.042 3.572-.893 5.805.148 2.232 2.158 1.488 2.381 4.018.223 2.53.227 8.11.746 10.566Z" style="fill:none;stroke:#f500f1;stroke-width:.91px" transform="translate(-16.456 -263.482) scale(1.09743)"/><path d="M432.533 598.444c-9.079-3.944-17.414-5.06-22.251-4.837-4.837.224-20.299 4.54-28.947 11.684-.388-4.54-.016-10.865.133-12.874-4.837 0-10.642-.652-13.08-1.909-2.438-1.257-3.962-4.191-3.962-6.172 0-1.981.914-4.039 1.143-4.915-1.41-.153-2.515-3.582-2.287-5.449.229-1.866 2.537-6.38 2.965-8.333.429-1.952 1.572-3.429 2.239-5.858-.619-.047-2.905-.381-2.905-.381.113-2.759 2.788-2.643 4.067-6.48 1.279-3.837 5.116-10.116 7.092-14.069 1.977-3.954 4.651-7.674 6.744-9.767 2.093-2.093 4.186-4.303 6.86-4.535 2.675-.233 4.535.698 4.535.698 0-1.977 1.047-6.279 4.302-5.93 0-2.21 1.279-7.675 1.396-10.116-2.093-2.558-6.512-9.302-7.558-13.488-5.233-.116-6.977-1.977-8.721-4.418-1.744-2.442-2.325-5.465-2.209-8.488.116-3.024 1.744-4.766 2.442-5.465-2.791-3.954-3.023-9.535-3.023-12.325 0-2.791 1.395-7.791 3.72-9.884 2.326-2.093 9.302-5.232 11.977-5.348-.465-2.035-.698-5.872-.814-7.151-.117-1.279 1.046-1.861 2.325-2.442 1.279-.581 11.046-5.55 14.767-5.465 3.721.086 7.522 9.969 8.412 12.411 1.471-1.977 4.959-6.86 6.355-6.86 1.395 0 .697 6.627.465 8.371.93-1.86 4.883-10.581 7.558-11.976 2.674-1.395 6.395.465 9.883 1.744 3.488 1.279 11.334 4.743 14.776 5.984-.923 2.574-.956 2.822-1.87 5.062-2.441 4.419-4.816 12.305-5.133 13.956-.318 1.651-2.477 15.113-2.413 17.462.063 2.35.381 13.082 1.016 15.685-1.588.127-3.874-1.27-5.461-2.984-1.461 8.809-6.195 15.667-8.527 18.017-2.332 2.349-9.825 7.81-12.619 9.017-2.794 1.206-9.716-.381-10.923-.953-.635 1.588-.635 6.193-.254 7.557 4.763-.16 8.827 3.777 10.224 7.015 1.397 3.239 7.493 11.685 8.827 13.082 1.333 1.397 7.322 7.168 8.541 8.235 2.134-.661 5.436-1.321 7.976-1.169 2.54.153 8.23-1.321 10.77-3.2 2.54-1.88 6.725-5.1 12.631-7.068 5.905-1.969 7.556-2.159 10.477-1.905 2.921.254 3.493 2.095 1.905 3.873-1.587 1.778-8.128 4.082-9.715 6.477 4.381-.132 13.335-.704 16.066.503 2.73 1.206 4.064 3.111 2.095 4.953-1.968 1.841-11.557 1.079-13.653 1.143 4.572 2.349 7.684 6.54 7.747 8.826.064 2.287-2.286 1.969-4.381 1.525-2.096-.445-4.888-3.529-5.396-3.986-2.134.813-6.051 1.931-7.521 1.931-1.471 0-4.249-.416-4.94-.7-2.967 2.804-11.236 8.314-13.065 8.975-1.828.66-9.804.965-11.836.609-2.032-.355-9.449-2.997-13.97-8.229-.712.355-2.032.355-2.032.355.914 5.537 2.546 11.024 2.546 13.246 0 2.223-.43 3.754.318 6.922.524 2.223 3.046 8.312 4.171 9.811ZM477.417 656.128c-5.652-.635-13.336-3.112-15.749-4.826-2.413-1.715-4.635-3.62-4.953-6.731-.317-3.112.762-7.43 1.588-9.843-5.779-.508-10.382-3.225-12.367-6.266-1.984-3.042-3.473-6.018-3.473-10.483 0-4.465 1.365-6.945 3.101-9.674 1.736-2.729 3.32-4.382 4.034-5.479.715-1.098 1.487-2.195 2.381-2.642.894-.447 1.788-.447 3.089-.569.691-1.3 1.097-1.951 1.829-2.194.731-.244 2.194-.651 3.048-.163.853.488 1.138 1.829 1.26 2.764 2.926-.569 4.614-1.305 6.646-1.834 2.032-.528 3.983-1.3 5.649-1.91 1.666-.609 1.544-1.625 2.845-1.707 1.3-.081 1.016 1.789 2.804.854 1.788-.935 6.679-3.999 10.134-4.811 3.454-.813 6.858-1.677 9.652-1.88 2.794-.203 5.182.559 6.604 1.778 2.489-2.388 4.265-3.774 5.789-4.892 1.524-1.118 4.572-2.997 7.671-3.15.762-2.692 2.632-6.321 5.325-7.134-.051-3.607.778-6.223 2.048-8.205 1.27-1.981 2.337-4.064 4.826-5.638 2.49-1.575 4.166-2.134 7.112-2.236 2.947-.101 3.983.179 4.991.342 2.016-.943 7.269-2.171 10.52-2.236 3.251-.065 5.46.258 9.397 1.846 3.937 1.587 5.905 2.857 8.953 5.397 3.048 2.54 6.351 6.367 7.78 9.463 1.429 3.096 1.984 6.35 2.064 8.89 4.048.794 5.891 3.81 6.826 7.858.935 4.049 1.411 12.304 1.014 16.034-.397 3.731-2.302 7.541-3.651 9.525-1.35 1.985-4.604 6.978-6.43 8.331-1.825 1.353-6.429 1.512-9.445 1.909-3.017.397-5.026.42-8.137 1.846-3.112 1.426-5.969 2.696-8.636 4.093 1.587 2.731 2.286 5.461 1.016 6.795-1.27 1.333-4.128 2.159-7.366 2.159-3.239 0-8.891 2.222-10.923 2.984s-7.239 3.366-9.842 5.017c-2.604 1.651-4.546 2.866-8.311 2.93-3.764.063-11.063 1.086-15.111 1.879-4.048.794-5.715 1.191-5.715 1.191-.794 2.302-2.725 4.587-3.572 5.398-1.129 1.079-3.321 1.62-4.763 1.666-1.638.054-4.74-.497-6.425-1.746-1.507-1.118-4.297-3.05-5.127-4.7Z" style="fill:none;stroke:#f500f1;stroke-width:.91px" transform="translate(-29.656 -233.082) scale(1.09743)"/></svg>